<svg width="79" height="48" viewBox="0 0 79 48" fill="none" xmlns="http://www.w3.org/2000/svg">
<path fill-rule="evenodd" clip-rule="evenodd" d="M0.634421 47.3962C0.634421 47.3962 0.634336 47.3963 0.765174 47.4697C0.836561 47.6016 0.836655 47.6016 0.836655 47.6016L0.843999 47.5976L0.866486 47.5855L0.955039 47.5382C1.03293 47.4967 1.14782 47.436 1.29556 47.3588C1.59106 47.2044 2.01794 46.9845 2.54298 46.7225C3.59322 46.1985 5.03551 45.5067 6.60436 44.8349C8.17377 44.1628 9.86689 43.5121 11.4194 43.0693C12.9776 42.6248 14.3731 42.3961 15.3568 42.5499L15.4032 42.2535C14.3506 42.089 12.901 42.3347 11.3371 42.7808C9.76752 43.2285 8.06148 43.8846 6.48627 44.5591C4.91051 45.2339 3.46272 45.9284 2.40905 46.4541C1.88213 46.717 1.45359 46.9378 1.15666 47.0929C1.14985 47.0964 1.14312 47.0999 1.13646 47.1034C1.18153 47.0199 1.23225 46.9253 1.28802 46.8204C1.53227 46.3614 1.87355 45.7059 2.26195 44.9196C3.03845 43.3475 4.00462 41.2499 4.76015 39.1525C5.51383 37.0603 6.06535 34.9487 5.99683 33.356C5.96252 32.5586 5.77208 31.871 5.35306 31.3832C4.92936 30.8901 4.29209 30.6243 3.41689 30.6328L3.4198 30.9328C4.22945 30.9249 4.7729 31.1683 5.12551 31.5787C5.48279 31.9946 5.66424 32.6049 5.69711 33.3689C5.76293 34.8989 5.22995 36.9631 4.47791 39.0508C3.72773 41.1333 2.76696 43.2197 1.99297 44.7867C1.60612 45.5699 1.26626 46.2227 1.02318 46.6795C0.901642 46.9079 0.804318 47.0873 0.737432 47.2096C0.703989 47.2707 0.678157 47.3175 0.660715 47.3489L0.64094 47.3845L0.634421 47.3962ZM0.765174 47.4697L0.836655 47.6016L0.381042 47.8481L0.634421 47.3962L0.765174 47.4697Z" fill="white"/>
<path fill-rule="evenodd" clip-rule="evenodd" d="M39.0278 11.1122C26.1443 18.0561 14.6464 27.8131 7.69545 39.0643L7.95068 39.2219C14.867 28.0267 26.3198 18.3023 39.1701 11.3763C52.0205 4.45035 66.2546 0.330274 78.7244 0.330273V0.0302734C66.1942 0.0302729 51.9113 4.16841 39.0278 11.1122Z" fill="white"/>
</svg>
