<svg id="visual" viewBox="0 0 900 600" width="900" height="600" xmlns="http://www.w3.org/2000/svg" xmlns:xlink="http://www.w3.org/1999/xlink" version="1.1"><path d="M338 600L359.8 588.8C381.7 577.7 425.3 555.3 449.5 533.2C473.7 511 478.3 489 504.8 466.8C531.3 444.7 579.7 422.3 569 400C558.3 377.7 488.7 355.3 467.2 333.2C445.7 311 472.3 289 517.3 266.8C562.3 244.7 625.7 222.3 610.7 200C595.7 177.7 502.3 155.3 459.7 133.2C417 111 425 89 440 66.8C455 44.7 477 22.3 488 11.2L499 0L900 0L900 11.2C900 22.3 900 44.7 900 66.8C900 89 900 111 900 133.2C900 155.3 900 177.7 900 200C900 222.3 900 244.7 900 266.8C900 289 900 311 900 333.2C900 355.3 900 377.7 900 400C900 422.3 900 444.7 900 466.8C900 489 900 511 900 533.2C900 555.3 900 577.7 900 588.8L900 600Z" fill="#0066FF" stroke-linecap="round" stroke-linejoin="miter"></path></svg>